<svg width="1179" height="357" viewBox="0 0 1179 357" fill="none" xmlns="http://www.w3.org/2000/svg">
<path d="M0 99.9999C0 44.7714 44.7715 0 100 0H1078.88C1134.1 0 1178.88 44.7715 1178.88 100V256.444C1178.88 311.673 1134.1 356.444 1078.88 356.444H100C44.7716 356.444 0 311.673 0 256.444V99.9999Z" fill="#2C2C2C"/>
<path d="M280.238 97.7735L332.488 224.123H309.688L299.808 200.373H231.408L221.528 224.123H198.918L250.978 97.7735H280.238ZM239.008 181.943H292.208L268.648 124.753C267.698 122.283 267.128 119.623 267.128 116.963L266.938 110.883H264.278V116.393C264.278 119.243 263.708 121.903 262.568 124.563L239.008 181.943ZM394.139 126.653C418.839 126.653 438.979 146.793 438.979 171.493H417.889C417.889 156.863 407.249 145.083 394.139 145.083C374.569 145.083 358.609 159.333 358.609 176.813V224.123H337.709V129.313H358.609V130.643C358.609 133.683 358.039 136.533 356.899 139.193L352.149 149.833L354.619 150.973L358.419 142.613C360.509 137.863 364.499 133.873 369.249 131.783C376.849 128.553 385.209 126.653 394.139 126.653ZM530.526 129.123H551.046L487.966 255.853L471.436 247.493L482.456 225.833L434.386 129.123H454.906L489.106 197.903C490.436 200.753 491.196 203.983 491.196 207.213V210.823H494.046V207.213C494.046 203.983 494.806 200.753 496.326 197.903L530.526 129.123ZM637.016 129.313H658.106V224.123H637.016V176.813C637.016 159.333 621.246 145.083 601.486 145.083C581.916 145.083 565.956 159.333 565.956 176.813C565.956 194.103 576.596 208.353 589.706 208.353C602.816 208.353 613.456 196.573 613.456 181.943H634.356C634.356 206.643 614.406 226.783 589.706 226.783C565.006 226.783 545.056 204.363 545.056 176.813C545.056 149.073 570.326 126.653 601.486 126.653C610.416 126.653 618.966 128.553 626.376 131.783C631.316 133.873 635.116 137.863 637.396 142.613L641.006 150.973L643.666 149.833L638.916 139.193C637.776 136.533 637.016 133.683 637.016 130.643V129.313ZM727.756 126.653C752.456 126.843 772.406 146.983 772.406 171.683V224.123H751.316V171.493C751.316 156.863 740.676 145.083 727.566 145.083C707.996 145.083 692.036 159.333 692.036 176.813V224.123H671.136V129.313H692.036V130.643C692.036 133.683 691.466 136.533 690.326 139.193L685.576 149.833L688.046 150.973L691.846 142.613C693.936 137.863 697.736 134.063 702.486 131.973C710.086 128.553 718.636 126.653 727.756 126.653ZM850.741 231.913V129.313H871.831V231.913C871.831 246.543 857.771 258.323 840.291 258.323H827.181V239.893H840.291C845.991 239.893 850.741 236.283 850.741 231.913ZM871.831 124.183H850.741V103.093H871.831V124.183ZM961.456 174.913C970.196 180.423 975.516 188.023 975.516 196.383C975.516 213.103 954.426 226.783 928.206 226.783C901.986 226.783 880.896 213.103 880.896 196.383C880.896 196.003 880.896 195.623 880.896 195.243H901.986C901.986 195.623 901.796 196.003 901.796 196.383C901.796 203.033 913.576 208.353 928.206 208.353C942.646 208.353 954.426 203.033 954.426 196.383C954.426 189.923 941.316 187.263 928.206 184.603C915.096 181.943 902.936 180.993 894.766 174.913C887.736 169.783 883.366 163.133 883.366 155.723C883.366 139.763 903.506 126.653 928.206 126.653C952.906 126.653 972.856 139.763 972.856 155.723H951.766C951.766 149.833 941.316 145.083 928.206 145.083C915.096 145.083 904.456 149.833 904.456 155.723C904.456 161.423 915.286 163.703 928.206 166.173C941.316 168.833 952.906 169.593 961.456 174.913Z" fill="white"/>
</svg>
